<svg xmlns="http://www.w3.org/2000/svg" viewBox="0 0 990 405"><rect width="990" height="405" style="fill:#003ca6"/><path d="M235.58,297.57H208.47l-2.13-2.12.61-16.13h-1.22a49.1,49.1,0,0,1-41.11,21.3c-21,0-40.8-8.51-40.8-42.62,0-34.4,25.88-46,53-46h29.54V198.32c0-13.71-9.75-21.62-26.8-21.62-19.17,0-42.32,3-42.32,3l-2.13-2.13V154.46a458.09,458.09,0,0,1,49.63-3c23.14,0,50.86,6.08,50.86,40.19Zm-29.24-62.41H184.72c-20.72,0-31.37,4.58-31.37,21,0,15.83,11.57,19.17,22.24,19.17,10,0,21-2.74,30.75-15.23Z" style="fill:#fff"/><path d="M380.22,297.57H351V196.19c0-15.83-8.83-19.49-20.4-19.49-10.35,0-20.4,4.56-32.59,18.57v102.3H268.46V154.46h27.41l2.12,2.13-.6,16.16h1.22s12.48-21.32,40.8-21.32c23.15,0,40.81,8.82,40.81,42.93Z" style="fill:#fff"/><path d="M516,235.16H439.59v14.93c0,21.93,14.3,24.35,31.36,24.35a280.93,280.93,0,0,0,38.37-3l2.14,2.14v24a393.5,393.5,0,0,1-47.52,3.05c-25.27,0-53.89-7.9-53.89-42V196.79c0-35.63,28.93-45.36,56-45.36s55.74,8.82,55.74,45.36a279.56,279.56,0,0,1-2.75,35.33Zm-76.42-40.5V212h50.24a85.22,85.22,0,0,0,1.22-17c-.61-13.7-10.35-18.26-25-18.26C450.54,176.7,439.59,182.18,439.59,194.66Z" style="fill:#fff"/><path d="M664.92,297.57H629.59l-28-48.09-38.39,65.3H527.87l54.83-89.67-43.54-70.65h35l27.4,47.5,27.1-47.5h35l-43.54,70.65Z" style="fill:#fff"/><path d="M716.68,154.46V297.57H687.14V154.46Z" style="fill:#fff"/><path d="M854.93,297.57H827.82l-2.14-2.12.63-16.13h-1.23a49.1,49.1,0,0,1-41.1,21.3c-21,0-40.8-8.51-40.8-42.62,0-34.4,25.87-46,53-46h29.52V198.32c0-13.71-9.73-21.62-26.79-21.62-19.18,0-42.32,3-42.32,3l-2.13-2.13V154.46a457.78,457.78,0,0,1,49.62-3c23.15,0,50.87,6.08,50.87,40.19Zm-29.25-62.41H804.06c-20.7,0-31.36,4.58-31.36,21,0,15.83,11.58,19.17,22.24,19.17,10,0,21-2.74,30.74-15.23Z" style="fill:#fff"/><polygon points="702.04 96.59 708.26 89.9 710.66 98.7 719.27 95.69 717.32 104.59 726.34 105.93 720.47 112.91 727.84 118.28 719.39 121.73 723.43 129.92 714.35 129.04 714.12 138.17 706.49 133.18 702.04 141.15 697.59 133.18 689.97 138.17 689.72 129.04 680.65 129.92 684.68 121.73 676.23 118.28 683.61 112.91 677.74 105.93 686.76 104.59 684.81 95.69 693.41 98.7 695.81 89.9 702.04 96.59" style="fill:#fff"/></svg>